<svg width="37" height="44" viewBox="0 0 37 44" fill="none" xmlns="http://www.w3.org/2000/svg">
<g id="Group 28">
<path id="Vector" d="M8.62831 16.0831L0.0383482 21.1882L0 11.0931L8.62831 16.0831Z" fill="#27ACA1"/>
<path id="Vector_2" d="M27.5722 5.02837L18.9056 10.0183V0L27.5722 5.02837Z" fill="#27ACA1"/>
<path id="Vector_3" d="M17.9086 10.5174L9.24191 15.5458V5.52747L17.9086 10.5174Z" fill="#27ACA1"/>
<path id="Vector_4" d="M17.9086 33.2411L9.24191 38.2311V28.1358L17.9086 33.2411Z" fill="#27ACA1"/>
<path id="Vector_5" d="M8.62831 27.2912L0.0383482 32.3579L0 22.2629L8.62831 27.2912Z" fill="#27ACA1"/>
<path id="Vector_6" d="M36.6608 22.0325L28.0709 27.1376V17.0042L36.6608 22.0325Z" fill="#27ACA1"/>
<path id="Vector_7" d="M27.5722 38.7299L18.9056 43.7582V33.6631L27.5722 38.7299Z" fill="#27ACA1"/>
<path id="Vector_8" d="M36.7375 33.3179L28.1091 38.3461V28.2511L36.7375 33.3179Z" fill="#27ACA1"/>
<path id="Vector_9" d="M0 21.7256L8.62831 26.7541V16.6973L0 21.7256Z" fill="#27ACA1"/>
<path id="Vector_10" d="M18.7906 22.0325L27.4188 27.0993V17.0042L18.7906 22.0325Z" fill="#27ACA1"/>
<path id="Vector_11" d="M28.2625 27.6752L36.9291 32.742V22.6469L28.2625 27.6752Z" fill="#27ACA1"/>
<path id="Vector_12" d="M9.6637 5.06674L18.2537 10.0951L18.292 0.0383911L9.6637 5.06674Z" fill="#27ACA1"/>
<path id="Vector_13" d="M9.6637 38.7299L18.2537 43.7582L18.292 33.6631L9.6637 38.7299Z" fill="#27ACA1"/>
<path id="Vector_14" d="M0 32.8956L8.62831 37.9239V27.8671L0 32.8956Z" fill="#27ACA1"/>
<path id="Vector_15" d="M18.9823 33.2411L27.6107 38.2311V28.1358L18.9823 33.2411Z" fill="#27ACA1"/>
<path id="Vector_16" d="M0 10.5174L8.62831 15.5458V5.52747L0 10.5174Z" fill="#27ACA1"/>
</g>
</svg>
