<svg width="251" height="46" viewBox="0 0 251 46" fill="none" xmlns="http://www.w3.org/2000/svg">
<rect width="251" height="46" rx="8" fill="#DCF7F4"/>
<path d="M21.0087 24C19.9032 24 19 24.8869 19 26C19 27.6912 19.8328 28.9663 21.135 29.7966C22.417 30.614 24.1453 31 26 31C27.8547 31 29.583 30.614 30.865 29.7966C32.1672 28.9663 33 27.6912 33 26C33 24.8956 32.1045 24 31 24L21.0087 24Z" fill="#27ACA1"/>
<circle cx="26" cy="19" r="3" fill="#27ACA1"/>
<path d="M49.4855 30V16.9091H54.3946C55.4003 16.9091 56.2441 17.0966 56.9259 17.4716C57.612 17.8466 58.1297 18.3622 58.4791 19.0185C58.8328 19.6705 59.0097 20.4119 59.0097 21.2429C59.0097 22.0824 58.8328 22.8281 58.4791 23.4801C58.1254 24.1321 57.6034 24.6456 56.9131 25.0206C56.2227 25.3913 55.3726 25.5767 54.3627 25.5767H51.1091V23.6271H54.0431C54.6311 23.6271 55.1127 23.5249 55.4877 23.3203C55.8627 23.1158 56.1396 22.8345 56.3186 22.4766C56.5019 22.1186 56.5935 21.7074 56.5935 21.2429C56.5935 20.7784 56.5019 20.3693 56.3186 20.0156C56.1396 19.6619 55.8605 19.3871 55.4813 19.1911C55.1063 18.9908 54.6226 18.8906 54.0303 18.8906H51.857V30H49.4855ZM65.1732 30.1918C64.1888 30.1918 63.3387 29.9872 62.6228 29.5781C61.9111 29.1648 61.3635 28.581 60.98 27.8267C60.5965 27.0682 60.4047 26.1754 60.4047 25.1484C60.4047 24.1385 60.5965 23.2521 60.98 22.4893C61.3678 21.7223 61.909 21.1257 62.6036 20.6996C63.2982 20.2692 64.1143 20.054 65.0518 20.054C65.6569 20.054 66.2279 20.152 66.7648 20.348C67.306 20.5398 67.7833 20.8381 68.1966 21.2429C68.6143 21.6477 68.9424 22.1634 69.181 22.7898C69.4197 23.4119 69.539 24.1534 69.539 25.0142V25.7237H61.4914V24.1641H67.3209C67.3167 23.7209 67.2208 23.3267 67.0333 22.9815C66.8458 22.6321 66.5837 22.3572 66.2471 22.157C65.9147 21.9567 65.5269 21.8565 65.0837 21.8565C64.6107 21.8565 64.1952 21.9716 63.8373 22.2017C63.4793 22.4276 63.2002 22.7259 62.9999 23.0966C62.8039 23.4631 62.7037 23.8658 62.6995 24.3047V25.6662C62.6995 26.2372 62.8039 26.7273 63.0127 27.1364C63.2215 27.5412 63.5134 27.8523 63.8884 28.0696C64.2634 28.2827 64.7023 28.3892 65.2052 28.3892C65.5418 28.3892 65.8465 28.3423 66.1192 28.2486C66.392 28.1506 66.6285 28.0078 66.8287 27.8203C67.029 27.6328 67.1803 27.4006 67.2826 27.1236L69.4431 27.3665C69.3067 27.9375 69.0468 28.4361 68.6633 28.8622C68.284 29.2841 67.7982 29.6122 67.2059 29.8466C66.6135 30.0767 65.936 30.1918 65.1732 30.1918ZM77.9909 20.1818V22.0803H73.7593V30H71.4965V20.1818H77.9909ZM82.077 26.8679L86.0081 20.1818H88.3859V30H86.1487V23.3075L82.2304 30H79.8461V20.1818H82.077V26.8679ZM95.0448 30.1918C94.0647 30.1918 93.2231 29.9766 92.52 29.5462C91.8211 29.1158 91.282 28.5213 90.9028 27.7628C90.5278 27 90.3403 26.1222 90.3403 25.1293C90.3403 24.1321 90.532 23.2521 90.9156 22.4893C91.2991 21.7223 91.8403 21.1257 92.5392 20.6996C93.2423 20.2692 94.0732 20.054 95.032 20.054C95.8289 20.054 96.5342 20.201 97.1478 20.495C97.7657 20.7848 98.2579 21.196 98.6244 21.7287C98.9909 22.2571 99.1997 22.875 99.2508 23.5824H97.0392C96.9497 23.1094 96.7366 22.7152 96.3999 22.3999C96.0676 22.0803 95.6222 21.9205 95.064 21.9205C94.591 21.9205 94.1755 22.0483 93.8176 22.304C93.4596 22.5554 93.1805 22.9176 92.9802 23.3906C92.7842 23.8636 92.6862 24.4304 92.6862 25.0909C92.6862 25.7599 92.7842 26.3352 92.9802 26.8168C93.1762 27.294 93.4511 27.6626 93.8048 27.9226C94.1627 28.1783 94.5825 28.3061 95.064 28.3061C95.4049 28.3061 95.7096 28.2422 95.9781 28.1143C96.2508 27.9822 96.4788 27.7926 96.662 27.5455C96.8453 27.2983 96.971 26.9979 97.0392 26.6442H99.2508C99.1954 27.3388 98.9909 27.9545 98.6372 28.4915C98.2835 29.0241 97.8019 29.4418 97.1926 29.7443C96.5832 30.0426 95.8673 30.1918 95.0448 30.1918ZM100.438 22.0803V20.1818H109.029V22.0803H105.852V30H103.615V22.0803H100.438ZM110.872 33.6818V20.1818H113.147V21.8054H113.281C113.401 21.5668 113.569 21.3132 113.786 21.0447C114.004 20.772 114.298 20.5398 114.668 20.348C115.039 20.152 115.512 20.054 116.087 20.054C116.846 20.054 117.53 20.2479 118.139 20.6357C118.753 21.0192 119.239 21.5881 119.597 22.3423C119.959 23.0923 120.14 24.0128 120.14 25.1037C120.14 26.1818 119.963 27.098 119.609 27.8523C119.256 28.6065 118.774 29.1818 118.165 29.5781C117.555 29.9744 116.865 30.1726 116.094 30.1726C115.531 30.1726 115.065 30.0788 114.694 29.8913C114.323 29.7038 114.025 29.478 113.799 29.2138C113.578 28.9453 113.405 28.6918 113.281 28.4531H113.185V33.6818H110.872ZM113.141 25.0909C113.141 25.7259 113.23 26.282 113.409 26.7592C113.592 27.2365 113.854 27.6094 114.195 27.8778C114.541 28.142 114.958 28.2741 115.448 28.2741C115.96 28.2741 116.388 28.1378 116.733 27.8651C117.078 27.5881 117.338 27.2109 117.513 26.7337C117.692 26.2521 117.781 25.7045 117.781 25.0909C117.781 24.4815 117.694 23.9403 117.519 23.4673C117.345 22.9943 117.085 22.6236 116.739 22.3551C116.394 22.0866 115.964 21.9524 115.448 21.9524C114.954 21.9524 114.534 22.0824 114.189 22.3423C113.844 22.6023 113.582 22.9666 113.403 23.4354C113.228 23.9041 113.141 24.456 113.141 25.0909ZM124.947 30.1982C124.325 30.1982 123.764 30.0874 123.266 29.8658C122.771 29.6399 122.379 29.3075 122.09 28.8686C121.804 28.4297 121.661 27.8885 121.661 27.245C121.661 26.6911 121.764 26.233 121.968 25.8707C122.173 25.5085 122.452 25.2188 122.805 25.0014C123.159 24.7841 123.558 24.62 124.001 24.5092C124.448 24.3942 124.911 24.3111 125.388 24.2599C125.963 24.2003 126.43 24.147 126.788 24.1001C127.146 24.049 127.406 23.9723 127.568 23.87C127.734 23.7635 127.817 23.5994 127.817 23.3778V23.3395C127.817 22.858 127.674 22.4851 127.389 22.2209C127.103 21.9567 126.692 21.8246 126.155 21.8246C125.588 21.8246 125.139 21.9482 124.806 22.1953C124.478 22.4425 124.256 22.7344 124.141 23.071L121.981 22.7642C122.151 22.1676 122.433 21.669 122.825 21.2685C123.217 20.8636 123.696 20.5611 124.263 20.3608C124.83 20.1562 125.456 20.054 126.142 20.054C126.615 20.054 127.086 20.1094 127.555 20.2202C128.024 20.331 128.452 20.5142 128.84 20.7699C129.227 21.0213 129.538 21.3643 129.773 21.799C130.011 22.2337 130.131 22.777 130.131 23.429V30H127.906V28.6513H127.83C127.689 28.924 127.491 29.1797 127.235 29.4183C126.984 29.6527 126.666 29.8423 126.283 29.9872C125.903 30.1278 125.458 30.1982 124.947 30.1982ZM125.548 28.4979C126.012 28.4979 126.415 28.4062 126.756 28.223C127.097 28.0355 127.359 27.7884 127.542 27.4815C127.729 27.1747 127.823 26.8402 127.823 26.478V25.321C127.751 25.3807 127.627 25.4361 127.453 25.4872C127.282 25.5384 127.09 25.5831 126.877 25.6214C126.664 25.6598 126.453 25.6939 126.244 25.7237C126.036 25.7536 125.854 25.7791 125.701 25.8004C125.356 25.8473 125.047 25.924 124.774 26.0305C124.502 26.1371 124.286 26.2862 124.129 26.478C123.971 26.6655 123.892 26.9084 123.892 27.2067C123.892 27.6328 124.048 27.9545 124.359 28.1719C124.67 28.3892 125.066 28.4979 125.548 28.4979ZM140.748 20.1818V28.2741H142.25V33.1577H139.987V30H132.457V20.1818H134.688V28.1016H138.536V20.1818H140.748ZM146.378 26.8679L150.309 20.1818H152.687V30H150.449V23.3075L146.531 30H144.147V20.1818H146.378V26.8679ZM160.867 30V22.0611H158.77C158.238 22.0611 157.829 22.1847 157.543 22.4318C157.258 22.679 157.117 22.9858 157.121 23.3523C157.117 23.7188 157.251 24.0213 157.524 24.2599C157.797 24.4986 158.187 24.6179 158.694 24.6179H161.596V26.3054H158.694C157.91 26.3054 157.232 26.1818 156.661 25.9347C156.09 25.6875 155.651 25.3381 155.344 24.8864C155.037 24.4347 154.884 23.9062 154.884 23.3011C154.884 22.6705 155.04 22.1229 155.351 21.6584C155.666 21.1896 156.113 20.8274 156.693 20.5717C157.277 20.3118 157.969 20.1818 158.77 20.1818H163.034V30H160.867ZM154.526 30L157.268 24.9631H159.55L156.802 30H154.526ZM172.059 26.8679L175.991 20.1818H178.368V30H176.131V23.3075L172.213 30H169.829V20.1818H172.059V26.8679ZM185.209 30V20.1818H189.332C190.496 20.1818 191.414 20.4141 192.087 20.8786C192.765 21.343 193.104 21.9908 193.104 22.8217C193.104 23.3714 192.912 23.821 192.528 24.1705C192.149 24.5156 191.631 24.7479 190.975 24.8672C191.491 24.9098 191.942 25.0398 192.33 25.2571C192.722 25.4744 193.029 25.7599 193.251 26.1136C193.472 26.4673 193.583 26.8743 193.583 27.3345C193.583 27.8757 193.44 28.3466 193.155 28.7472C192.873 29.1435 192.462 29.4524 191.921 29.674C191.384 29.8913 190.732 30 189.965 30H185.209ZM187.376 28.1783H189.965C190.391 28.1783 190.726 28.0781 190.969 27.8778C191.212 27.6733 191.333 27.3963 191.333 27.0469C191.333 26.642 191.212 26.3246 190.969 26.0945C190.726 25.8601 190.391 25.7429 189.965 25.7429H187.376V28.1783ZM187.376 24.2472H189.377C189.692 24.2472 189.963 24.2024 190.189 24.1129C190.415 24.0192 190.587 23.8892 190.707 23.723C190.826 23.5526 190.886 23.3501 190.886 23.1158C190.886 22.7791 190.747 22.5149 190.47 22.3232C190.197 22.1314 189.818 22.0355 189.332 22.0355H187.376V24.2472ZM197.385 20.1818L199.366 23.8061L201.38 20.1818H203.828L200.868 25.0909L203.879 30H201.444L199.366 26.4652L197.308 30H194.853L197.845 25.0909L194.93 20.1818H197.385ZM209.531 30.1918C208.572 30.1918 207.741 29.9808 207.038 29.5589C206.335 29.1371 205.79 28.5469 205.402 27.7884C205.018 27.0298 204.827 26.1435 204.827 25.1293C204.827 24.1151 205.018 23.2266 205.402 22.4638C205.79 21.701 206.335 21.1087 207.038 20.6868C207.741 20.2649 208.572 20.054 209.531 20.054C210.49 20.054 211.321 20.2649 212.024 20.6868C212.727 21.1087 213.271 21.701 213.654 22.4638C214.042 23.2266 214.236 24.1151 214.236 25.1293C214.236 26.1435 214.042 27.0298 213.654 27.7884C213.271 28.5469 212.727 29.1371 212.024 29.5589C211.321 29.9808 210.49 30.1918 209.531 30.1918ZM209.544 28.3381C210.064 28.3381 210.498 28.1953 210.848 27.9098C211.197 27.62 211.457 27.2322 211.628 26.7464C211.802 26.2607 211.89 25.7195 211.89 25.1229C211.89 24.522 211.802 23.9787 211.628 23.4929C211.457 23.0028 211.197 22.6129 210.848 22.3232C210.498 22.0334 210.064 21.8885 209.544 21.8885C209.011 21.8885 208.568 22.0334 208.214 22.3232C207.865 22.6129 207.603 23.0028 207.428 23.4929C207.258 23.9787 207.172 24.522 207.172 25.1229C207.172 25.7195 207.258 26.2607 207.428 26.7464C207.603 27.2322 207.865 27.62 208.214 27.9098C208.568 28.1953 209.011 28.3381 209.544 28.3381ZM215.33 32.8509V28.0952H216.11C216.319 27.9332 216.494 27.7138 216.634 27.4368C216.775 27.1555 216.89 26.8253 216.979 26.446C217.073 26.0625 217.15 25.6342 217.21 25.1612C217.269 24.6839 217.323 24.1705 217.369 23.6207L217.651 20.1818H224.746V28.0952H226.267V32.8509H224.03V30H217.606V32.8509H215.33ZM218.488 28.0952H222.534V22.0483H219.658L219.504 23.6207C219.419 24.6605 219.306 25.5511 219.166 26.2926C219.025 27.0341 218.799 27.6349 218.488 28.0952Z" fill="#27ACA1"/>
</svg>
